<svg width="202" height="30" viewBox="0 0 202 30" fill="none" xmlns="http://www.w3.org/2000/svg">
<path d="M9.77001 9.70656L0 0H9.77001V9.70656Z" fill="white"/>
<path d="M9.77001 19.7304L0 29.437H9.77001V19.7304Z" fill="white"/>
<path d="M29.6274 9.70656L19.8574 0H29.6274V9.70656Z" fill="white"/>
<path d="M19.6153 7.67379L19.6602 21.4458L12.7517 14.5374L19.6153 7.67379Z" fill="white"/>
<path d="M29.6274 19.7304L19.8574 29.437H29.6274V19.7304Z" fill="white"/>
<path d="M62.06 22V20.14H55.94V15.84H61.72V13.98H55.94V10.06H61.9V8.2H53.68V22H62.06ZM70.4733 22V10.06H74.9333V8.2H63.7333V10.06H68.2133V22H70.4733ZM79.4939 22V15.9H85.4139V22H87.6739V8.2H85.4139V14.04H79.4939V8.2H77.2339V22H79.4939ZM99.8225 22V20.14H93.7025V15.84H99.4825V13.98H93.7025V10.06H99.6625V8.2H91.4425V22H99.8225ZM105.216 22V16.4H107.636L110.616 22H113.096L109.936 16.04C111.816 15.46 112.876 14.16 112.876 12.3C112.876 9.68 110.796 8.2 107.336 8.2H102.956V22H105.216ZM107.536 10.06C109.476 10.06 110.516 10.84 110.516 12.3C110.516 13.76 109.476 14.54 107.536 14.54H105.216V10.06H107.536ZM132.961 17H130.621C130.281 19.12 128.861 20.34 126.901 20.34C124.301 20.34 122.601 18.32 122.601 15.1C122.601 11.92 124.241 9.86 126.761 9.86C128.801 9.86 130.141 11.06 130.521 13.22H132.861C132.401 10.06 129.861 8 126.681 8C122.861 8 120.221 11.16 120.221 15.1C120.221 19.16 122.921 22.2 126.741 22.2C129.921 22.2 132.481 20.16 132.961 17ZM136.322 22L137.602 18.12H143.822L145.102 22H147.402L142.862 8.2H138.562L134.002 22H136.322ZM140.702 8.64L143.202 16.24H138.202L140.702 8.64ZM151.855 22V16.66H154.315C157.775 16.66 159.935 15.1 159.935 12.42C159.935 9.76 157.775 8.2 154.315 8.2H149.595V22H151.855ZM154.535 10.06C156.475 10.06 157.575 10.9 157.575 12.42C157.575 13.94 156.475 14.8 154.535 14.8H151.855V10.06H154.535ZM164.755 22V8.2H162.495V22H164.755ZM173.8 22V10.06H178.26V8.2H167.06V10.06H171.54V22H173.8ZM180.09 22L181.37 18.12H187.59L188.87 22H191.17L186.63 8.2H182.33L177.77 22H180.09ZM184.47 8.64L186.97 16.24H181.97L184.47 8.64ZM201.623 22V20.14H195.623V8.2H193.363V22H201.623Z" fill="white"/>
</svg>
