<svg id="medipharm-logo" xmlns="http://www.w3.org/2000/svg" width="226.896" height="132.008" viewBox="0 0 226.896 132.008">
  <path id="Path_247" data-name="Path 247" d="M238.764,483.134V482.7c0-5.382-3.912-7.253-9.282-7.253a52.72,52.72,0,0,0-5.5.268.816.816,0,0,0-.8.836v23.3a.635.635,0,0,0,.6.668h1.791a.634.634,0,0,0,.6-.668v-9.392c.862.066,2.254.166,3.315.166,5.37,0,9.282-1.9,9.282-7.487Zm-3.017,0c0,3.477-1.724,4.947-6.266,4.947-.862,0-2.553-.1-3.315-.134v-9.793c.8-.067,2.287-.134,3.315-.134,4.276,0,6.266,1.3,6.266,4.68v.434Zm19.51,16.713v-11c0-4.914-2.453-6.953-5.967-6.953a13.739,13.739,0,0,0-5.072,1.036v-6.886a.64.64,0,0,0-.63-.668h-1.657a.64.64,0,0,0-.63.668v23.8a.662.662,0,0,0,.63.668h1.624a.69.69,0,0,0,.663-.668V485.4a12.786,12.786,0,0,1,4.575-.936c2.154,0,3.547,1.036,3.547,4.379v11a.668.668,0,0,0,.663.668h1.591a.667.667,0,0,0,.663-.668Zm15.826,0V488.181c0-3.944-1.857-6.284-6.464-6.284a28.3,28.3,0,0,0-5.138.435c-.464.066-.7.267-.7.635v1.17c0,.434.3.535.6.535h.166a47.758,47.758,0,0,1,5.072-.268c2.586,0,3.547.969,3.547,3.777v1.338h-2.453c-5.9,0-7.989,1.8-7.989,5.414v.4c0,4.178,2.586,5.415,5.4,5.415a10.034,10.034,0,0,0,5.105-1.638v.735a.668.668,0,0,0,.663.668h1.525a.668.668,0,0,0,.663-.668Zm-2.917-2.841a9.06,9.06,0,0,1-4.475,1.337c-1.923,0-3.05-.635-3.05-3.042v-.4c0-2.373,1.061-3.276,5.072-3.276h2.453v5.381Zm13.957-13.136V482.5q0-.6-.7-.6a7.885,7.885,0,0,0-4.674,1.6v-.7a.64.64,0,0,0-.63-.669h-1.558a.641.641,0,0,0-.63.669v17.047a.662.662,0,0,0,.63.668h1.625a.69.69,0,0,0,.663-.668V485.841a8.438,8.438,0,0,1,4.575-1.4c.464,0,.7-.2.7-.568Zm24.8,15.977V488.015c0-4.646-2.387-6.15-5.37-6.15a13.216,13.216,0,0,0-5.5,1.37,4.023,4.023,0,0,0-3.315-1.37,9.274,9.274,0,0,0-4.84,1.57V482.8a.64.64,0,0,0-.63-.669h-1.657a.641.641,0,0,0-.63.669v17.047a.61.61,0,0,0,.564.668H287.3a.634.634,0,0,0,.6-.668V485.741a9.984,9.984,0,0,1,4.044-1.3c1.724,0,2.553.6,2.553,3.509v11.9a.61.61,0,0,0,.564.668h1.757a.634.634,0,0,0,.6-.668v-11.9a10.061,10.061,0,0,0-.3-2.606,11.405,11.405,0,0,1,3.879-.9c1.724,0,3.017.769,3.017,3.577v11.832a.668.668,0,0,0,.663.668h1.591a.668.668,0,0,0,.663-.668Zm26.125.134V498.41a.359.359,0,0,0-.365-.4h-6.4c-3.514,0-4.077-.936-4.077-3.477V476.349a.668.668,0,0,0-.663-.669h-1.691a.668.668,0,0,0-.663.669v18.183c0,5.516,3.514,6.218,7.061,6.218a54.607,54.607,0,0,0,6.464-.3.471.471,0,0,0,.332-.468Zm15.252-.134V488.181c0-3.944-1.856-6.284-6.464-6.284a28.3,28.3,0,0,0-5.138.435c-.464.066-.7.267-.7.635v1.17c0,.434.3.535.6.535h.166a47.734,47.734,0,0,1,5.072-.268c2.586,0,3.547.969,3.547,3.777v1.338H342.93c-5.9,0-7.989,1.8-7.989,5.414v.4c0,4.178,2.586,5.415,5.4,5.415a10.035,10.035,0,0,0,5.105-1.638v.735a.668.668,0,0,0,.663.668h1.525a.668.668,0,0,0,.663-.668Zm-2.917-2.841a9.062,9.062,0,0,1-4.475,1.337c-1.923,0-3.05-.635-3.05-3.042v-.4c0-2.373,1.061-3.276,5.072-3.276h2.453v5.381Zm19.791-4.512v-2.407c0-5.248-2.42-8.189-7.227-8.189a23.432,23.432,0,0,0-3.879.334v-6.217a.632.632,0,0,0-.63-.635h-1.691a.6.6,0,0,0-.6.635v23.4c0,.468.1.669.7.769a31.886,31.886,0,0,0,6.1.568c4.973,0,7.227-3.242,7.227-8.256Zm-2.917,0c0,3.644-1.028,5.682-4.31,5.682-1.127,0-2.751-.1-3.879-.2v-13.27a25.651,25.651,0,0,1,3.879-.234c3.249,0,4.31,2.039,4.31,5.615Zm17.133,3.41c0-1.972-.895-3.41-3.646-5.047l-3.282-1.972c-1.525-.9-2.288-1.538-2.288-2.54,0-1.7,1.227-1.939,3.084-1.939s3.978.167,5.138.268h.1a.509.509,0,0,0,.564-.569V483a.636.636,0,0,0-.63-.668,30.773,30.773,0,0,0-5.172-.435c-3.415,0-6,.97-6,4.446,0,2.106,1.359,3.543,3.382,4.78l3.348,2.006c1.889,1.137,2.486,1.771,2.486,2.774,0,1.8-1.127,2.373-3.282,2.373-1.194,0-3.614-.167-5.2-.367h-.132a.538.538,0,0,0-.6.5v1.17c0,.367.265.568.7.668a25.467,25.467,0,0,0,5.238.5c3.713,0,6.2-1.438,6.2-4.847Z" transform="translate(-152.501 -368.783)" fill="#393534"/>
  <path id="Path_248" data-name="Path 248" d="M108.775,500.292v-23a1.335,1.335,0,0,0-1.326-1.337H104.73a1.394,1.394,0,0,0-1.226.8l-5,10.234c-.166.3-.232.468-.365.468s-.2-.167-.364-.468l-5.006-10.228a1.394,1.394,0,0,0-1.226-.8H88.818a1.336,1.336,0,0,0-1.326,1.337v23a.507.507,0,0,0,.564.5H91.4c.3,0,.53-.334.53-.668V484.583c0-.234.033-.334.1-.334.033,0,.1.1.166.2l3.215,6.384a1.194,1.194,0,0,0,1.061.568H99.82a1.2,1.2,0,0,0,1.061-.568l3.182-6.384c.066-.1.132-.2.166-.2.066,0,.1.1.1.334v15.543c0,.334.232.668.53.668h3.348a.507.507,0,0,0,.563-.5Z" transform="translate(-87.237 -369.061)" fill="#393534"/>
  <path id="Path_249" data-name="Path 249" d="M142.264,487.036c-5.071,0-7.956,3.276-7.956,8.49V498c0,6.584,4.708,8.39,8.023,8.39a29.255,29.255,0,0,0,6.431-.568c.6-.1.7-.334.7-.869v-2.206c0-.334-.266-.5-.6-.5h-.1c-1.393.134-3.68.335-6.1.335-3.182,0-3.978-2.306-3.978-4.245v-.1h10.807c.464,0,.663-.3.663-.836v-1.872c0-4.981-2.785-8.49-7.89-8.49Zm3.481,8.055h-7.028v-.134c0-2.64,1.491-4.111,3.547-4.111s3.481,1.5,3.481,4.111Z" transform="translate(-109.754 -374.389)" fill="#393534"/>
  <path id="Path_250" data-name="Path 250" d="M185.028,474.8h-3.05a.668.668,0,0,0-.663.669v5.916a24.81,24.81,0,0,0-3.183-.234c-5.337,0-7.923,3.175-7.923,8.389v2.574c0,5.214,2.586,8.39,7.923,8.39a28.022,28.022,0,0,0,6.664-.869c.762-.2.9-.4.9-.9V475.469a.668.668,0,0,0-.663-.669Zm-3.713,21.86a19.1,19.1,0,0,1-3.183.234c-2.851,0-3.547-2.039-3.547-4.78V489.54c0-2.74.7-4.78,3.547-4.78a27.421,27.421,0,0,1,3.183.234V496.66Z" transform="translate(-127.022 -368.504)" fill="#393534"/>
  <path id="Path_251" data-name="Path 251" d="M211.363,478.023v-2.942a.668.668,0,0,0-.663-.669h-3.216a.7.7,0,0,0-.7.669v2.942a.7.7,0,0,0,.7.668H210.7a.668.668,0,0,0,.663-.668Z" transform="translate(-144.615 -368.318)" fill="#393534"/>
  <path id="Path_252" data-name="Path 252" d="M211.356,505.637V488.155a.667.667,0,0,0-.663-.668h-3.05a.667.667,0,0,0-.663.668v17.481a.7.7,0,0,0,.663.7h3.05a.7.7,0,0,0,.663-.7Z" transform="translate(-144.707 -374.606)" fill="#393534"/>
  <path id="Path_253" data-name="Path 253" d="M415.782,357.514c-19.424-5.493-40.535-4.96-56.778,4.2-7.8,4.4-12.462,9.257-20.14,13.75,6,9.338,11.422,14.088,20.656,17.648a120.346,120.346,0,0,0,14.175,3.211c2.5-.352,8.374-2.276,14.141-5.818,8.248-4.84,12.49-10.672,20.5-15.9a51.523,51.523,0,0,1,17.887-7.365,52.15,52.15,0,0,1,8.808-1.219,104.592,104.592,0,0,0-19.246-8.513Z" transform="translate(-208.141 -310.39)" fill="#bae4c0"/>
  <path id="Path_254" data-name="Path 254" d="M133.493,270C119.3,270,98.778,274.916,87,282.075c23.952,6.477,37.845,31.275,50.088,48.529,23.206,31.743,48.394,39.442,77.817,36.82,25.629-2.285,47.137-13.87,51.832-17.322-5.249,1.72-9.23,2.232-16.252,1.537-11.358-1.124-19.39-7.022-23.382-10.269a59.01,59.01,0,0,1-8.636-8.843c-10.074-12.2-16.922-27.173-27.645-38.75C176.164,277.95,154.675,270,133.493,270Z" transform="translate(-87 -270)" fill="#99d47d"/>
</svg>
